<svg width="20" height="12" viewBox="0 0 20 12" fill="currentColor" xmlns="http://www.w3.org/2000/svg">
<path d="M1.06068 10.9602C0.474891 10.3744 0.474891 9.42464 1.06068 8.83885L8.83885 1.06068C9.42464 0.474891 10.3744 0.474891 10.9602 1.06068C11.546 1.64646 11.546 2.59621 10.9602 3.182L3.182 10.9602C2.59621 11.546 1.64646 11.546 1.06068 10.9602Z" />
<path d="M9.0607 1.23226C9.64649 0.646472 10.5962 0.646472 11.182 1.23226L18.9602 9.01043C19.546 9.59622 19.546 10.546 18.9602 11.1318C18.3744 11.7175 17.4247 11.7175 16.8389 11.1318L9.0607 3.35358C8.47492 2.76779 8.47492 1.81804 9.0607 1.23226Z" />
</svg>
